PathFileType	4	(X/Y/Z)	 1.9Hzlow3min.trc
DataRate	CameraRate	NumFrames	NumMarkers	Units	OrigDataRate	OrigDataStartFrame	OrigNumFrames
200	200	9	42	m	200	251	1000
Frame#	Time	C7			LSH			RSH			MAN			RASI			LASI			HIPR			HIPL			RPSI			LPSI			COX			RTHI1			RTHI2			RTHI3			RTHI4			RLKN			RMKN			RSHA1			RSHA2			RSHA3			RSHA4			RLMAL			RHEEL			RMET5			RMET1			RTOE			LTHI1			LTHI2			LTHI3			LTHI4			LLKN			LMKN			LSHA1			LSHA2			LSHA3			LSHA4			LLMAL			LMMAL			LHEEL			LMET5			LMET1			LTOE			
		X1	Y1	Z1	X2	Y2	Z2	X3	Y3	Z3	X4	Y4	Z4	X5	Y5	Z5	X6	Y6	Z6	X7	Y7	Z7	X8	Y8	Z8	X9	Y9	Z9	X10	Y10	Z10	X11	Y11	Z11	X12	Y12	Z12	X13	Y13	Z13	X14	Y14	Z14	X15	Y15	Z15	X16	Y16	Z16	X17	Y17	Z17	X18	Y18	Z18	X19	Y19	Z19	X20	Y20	Z20	X21	Y21	Z21	X22	Y22	Z22	X23	Y23	Z23	X24	Y24	Z24	X25	Y25	Z25	X26	Y26	Z26	X27	Y27	Z27	X28	Y28	Z28	X29	Y29	Z29	X30	Y30	Z30	X31	Y31	Z31	X32	Y32	Z32	X33	Y33	Z33	X34	Y34	Z34	X35	Y35	Z35	X36	Y36	Z36	X37	Y37	Z37	X38	Y38	Z38	X39	Y39	Z39	X40	Y40	Z40	X41	Y41	Z41	X42	Y42	Z42	
251	1.2550	-0.328370	1.285185	-0.520184	-0.270031	1.274416	-0.686532	-0.237660	1.261503	-0.369261	-0.200893	1.221976	-0.541291	-0.208475	0.791528	-0.415609	-0.237716	0.791518	-0.662974	-0.245788	0.871319	-0.391297	-0.279094	0.863491	-0.681118	-0.376490	0.844053	-0.473993	-0.388471	0.843052	-0.561721	-0.388836	0.841405	-0.519856	-0.270668	0.633048	-0.350100	-0.245045	0.576434	-0.352473	-0.181398	0.612633	-0.353948	-0.213098	0.664150	-0.352968	-0.157369	0.386312	-0.374668	-0.154611	0.378023	-0.493430	-0.270525	0.292654	-0.357902	-0.298875	0.262313	-0.367563	-0.248522	0.226532	-0.370613	-0.224618	0.258884	-0.364784	-0.352173	0.099098	-0.405063	-0.408577	0.101597	-0.442202	-0.267979	0.034966	-0.384708	-0.229428	0.045478	-0.451427	-0.202242	0.035653	-0.449099	-0.322778	0.625904	-0.710358	-0.300649	0.571199	-0.716835	-0.236078	0.600096	-0.733341	-0.265829	0.653239	-0.726232	-0.210806	0.387072	-0.724361	-0.199916	0.367962	-0.610071	-0.338693	0.260510	-0.718163	-0.361276	0.229356	-0.704246	-0.307438	0.200301	-0.699566	-0.289841	0.238244	-0.713044	-0.411902	0.100853	-0.667334	-0.386178	0.119919	-0.591302	-0.465218	0.106454	-0.625175	-0.331193	0.034888	-0.688898	-0.286610	0.045557	-0.617744	-0.266085	0.035969	-0.628304	
252	1.2600	-0.329233	1.288452	-0.519958	-0.270926	1.278245	-0.686342	-0.238218	1.265182	-0.369232	-0.201606	1.225811	-0.541258	-0.207290	0.795408	-0.415769	-0.236568	0.795610	-0.662801	-0.245180	0.875255	-0.391607	-0.278210	0.867677	-0.680767	-0.375406	0.846967	-0.473966	-0.387398	0.846031	-0.561704	-0.387735	0.844366	-0.519845	-0.269810	0.636402	-0.349910	-0.244433	0.579624	-0.352346	-0.180568	0.615398	-0.354387	-0.211953	0.667113	-0.353383	-0.158082	0.388812	-0.374801	-0.155112	0.379751	-0.493643	-0.270860	0.294586	-0.357518	-0.298937	0.263897	-0.367301	-0.248624	0.228506	-0.370244	-0.224825	0.260965	-0.364526	-0.351548	0.100117	-0.404246	-0.408045	0.102776	-0.441016	-0.267525	0.035082	-0.384488	-0.229392	0.045373	-0.451413	-0.202277	0.035632	-0.449186	-0.321609	0.629223	-0.710703	-0.299597	0.574396	-0.716910	-0.234812	0.603118	-0.732854	-0.264469	0.656330	-0.726020	-0.210883	0.389930	-0.723694	-0.199665	0.370027	-0.609747	-0.338545	0.262610	-0.718280	-0.361038	0.231315	-0.704516	-0.307088	0.202525	-0.699784	-0.289672	0.240516	-0.713049	-0.411007	0.102163	-0.668245	-0.385603	0.121078	-0.592076	-0.464456	0.107943	-0.626335	-0.330780	0.035000	-0.689077	-0.286555	0.045505	-0.617753	-0.266099	0.035982	-0.628134	
253	1.2650	-0.330148	1.292358	-0.519714	-0.271928	1.282786	-0.686107	-0.238886	1.269601	-0.369190	-0.202342	1.230362	-0.541204	-0.205922	0.799869	-0.415966	-0.235233	0.800316	-0.662662	-0.244480	0.879635	-0.391771	-0.277220	0.872387	-0.680472	-0.374100	0.850620	-0.473958	-0.386111	0.849746	-0.561697	-0.386410	0.848061	-0.519851	-0.268810	0.640449	-0.349661	-0.243870	0.583435	-0.352200	-0.179705	0.618607	-0.354960	-0.210637	0.670607	-0.353812	-0.159386	0.391694	-0.374992	-0.156400	0.382061	-0.493821	-0.271485	0.296647	-0.357066	-0.299272	0.265580	-0.366928	-0.248886	0.230675	-0.369925	-0.225256	0.263287	-0.364309	-0.350895	0.101207	-0.403345	-0.407513	0.104008	-0.439652	-0.267098	0.035161	-0.384281	-0.229348	0.045327	-0.451402	-0.202338	0.035629	-0.449300	-0.320346	0.633343	-0.711122	-0.298561	0.578363	-0.717005	-0.233467	0.606751	-0.732278	-0.262926	0.660094	-0.725803	-0.211452	0.393373	-0.722944	-0.199768	0.372536	-0.609355	-0.338580	0.264962	-0.718387	-0.360924	0.233491	-0.704783	-0.306816	0.205055	-0.699967	-0.289637	0.243144	-0.713021	-0.410022	0.103641	-0.669233	-0.384967	0.122393	-0.592911	-0.463580	0.109596	-0.627601	-0.330328	0.035119	-0.689273	-0.286492	0.045467	-0.617779	-0.266144	0.036025	-0.628020	
254	1.2700	-0.331102	1.296858	-0.519445	-0.273009	1.288002	-0.685821	-0.239668	1.274706	-0.369122	-0.203095	1.235584	-0.541121	-0.204375	0.804869	-0.416211	-0.233718	0.805568	-0.662542	-0.243622	0.884460	-0.391792	-0.276103	0.877583	-0.680264	-0.372586	0.854978	-0.473959	-0.384615	0.854161	-0.561700	-0.384875	0.852461	-0.519868	-0.267688	0.645120	-0.349402	-0.243364	0.587812	-0.352049	-0.178840	0.622236	-0.355645	-0.209202	0.674591	-0.354239	-0.161266	0.394925	-0.375234	-0.158501	0.384954	-0.493985	-0.272418	0.298816	-0.356606	-0.299882	0.267359	-0.366489	-0.249326	0.233042	-0.369675	-0.225935	0.265835	-0.364155	-0.350211	0.102389	-0.402384	-0.406960	0.105307	-0.438169	-0.266612	0.035316	-0.384050	-0.229335	0.045244	-0.451383	-0.202453	0.035602	-0.449436	-0.319029	0.638199	-0.711574	-0.297571	0.583032	-0.717099	-0.232102	0.610938	-0.731631	-0.261255	0.664480	-0.725569	-0.212512	0.397343	-0.722117	-0.200337	0.375562	-0.608857	-0.338802	0.267551	-0.718467	-0.360939	0.235849	-0.705027	-0.306632	0.207883	-0.700122	-0.289741	0.246094	-0.712951	-0.408952	0.105291	-0.670252	-0.384285	0.123867	-0.593782	-0.462595	0.111401	-0.628900	-0.329815	0.035293	-0.689440	-0.286416	0.045420	-0.617800	-0.266195	0.036080	-0.627908	
255	1.2750	-0.332029	1.301978	-0.519213	-0.274155	1.293829	-0.685493	-0.240556	1.280434	-0.369025	-0.203862	1.241423	-0.540997	-0.202661	0.810362	-0.416509	-0.232028	0.811312	-0.662429	-0.242532	0.889739	-0.391710	-0.274826	0.883262	-0.680162	-0.370874	0.859995	-0.473971	-0.382929	0.859242	-0.561712	-0.383144	0.857521	-0.519895	-0.266499	0.650337	-0.349123	-0.242934	0.592719	-0.351906	-0.178009	0.626272	-0.356412	-0.207706	0.679041	-0.354656	-0.163665	0.398520	-0.375516	-0.161491	0.388386	-0.494138	-0.273667	0.301117	-0.356162	-0.300785	0.269265	-0.366004	-0.249961	0.235623	-0.369488	-0.226874	0.268625	-0.364055	-0.349495	0.103689	-0.401408	-0.406390	0.106724	-0.436628	-0.266126	0.035465	-0.383804	-0.229345	0.045149	-0.451295	-0.202594	0.035560	-0.449572	-0.317702	0.643703	-0.712024	-0.296667	0.588334	-0.717183	-0.230782	0.615627	-0.730935	-0.259522	0.669431	-0.725319	-0.214048	0.401784	-0.721218	-0.201472	0.379185	-0.608231	-0.339209	0.270357	-0.718510	-0.361077	0.238389	-0.705231	-0.306533	0.211026	-0.700262	-0.289976	0.249356	-0.712835	-0.407788	0.107119	-0.671279	-0.383546	0.125510	-0.594662	-0.461466	0.113364	-0.630199	-0.329239	0.035529	-0.689594	-0.286314	0.045362	-0.617826	-0.266247	0.036129	-0.627805	
256	1.2800	-0.332927	1.307690	-0.519106	-0.275347	1.300210	-0.685126	-0.241541	1.286737	-0.368904	-0.204651	1.247812	-0.540824	-0.200802	0.816303	-0.416854	-0.230187	0.817496	-0.662313	-0.241146	0.895483	-0.391573	-0.273351	0.889422	-0.680161	-0.368980	0.865606	-0.473992	-0.381069	0.864929	-0.561730	-0.381235	0.863178	-0.519930	-0.265293	0.656061	-0.348872	-0.242609	0.598113	-0.351822	-0.177262	0.630718	-0.357211	-0.206207	0.683913	-0.355076	-0.166538	0.402465	-0.375819	-0.165309	0.392299	-0.494293	-0.275241	0.303580	-0.355757	-0.301986	0.271337	-0.365510	-0.250802	0.238434	-0.369351	-0.228089	0.271677	-0.364000	-0.348771	0.105138	-0.400463	-0.405764	0.108256	-0.435111	-0.265611	0.035662	-0.383595	-0.229332	0.045066	-0.451231	-0.202761	0.035519	-0.449713	-0.316405	0.649800	-0.712428	-0.295896	0.594204	-0.717222	-0.229565	0.620768	-0.730219	-0.257792	0.674880	-0.725047	-0.216022	0.406648	-0.720253	-0.203246	0.383468	-0.607464	-0.339801	0.273371	-0.718503	-0.361326	0.241123	-0.705374	-0.306508	0.214452	-0.700352	-0.290340	0.252924	-0.712673	-0.406529	0.109144	-0.672289	-0.382736	0.127325	-0.595520	-0.460157	0.115491	-0.631476	-0.328642	0.035765	-0.689718	-0.286198	0.045263	-0.617812	-0.266299	0.036141	-0.627665	
257	1.2850	-0.333809	1.313945	-0.519127	-0.276545	1.307073	-0.684708	-0.242590	1.293559	-0.368780	-0.205452	1.254724	-0.540613	-0.198816	0.822636	-0.417231	-0.228226	0.824067	-0.662192	-0.239434	0.901699	-0.391427	-0.271653	0.896048	-0.680233	-0.366934	0.871770	-0.474030	-0.379056	0.871154	-0.561760	-0.379170	0.869367	-0.519970	-0.264114	0.662241	-0.348683	-0.242419	0.603953	-0.351800	-0.176637	0.635552	-0.358019	-0.204757	0.689181	-0.355498	-0.169823	0.406782	-0.376127	-0.169840	0.396652	-0.494453	-0.277132	0.306229	-0.355405	-0.303508	0.273638	-0.365002	-0.251852	0.241493	-0.369246	-0.229567	0.275014	-0.363971	-0.348051	0.106760	-0.399575	-0.405032	0.109906	-0.433688	-0.265109	0.035873	-0.383448	-0.229305	0.044980	-0.451191	-0.202946	0.035489	-0.449851	-0.315180	0.656447	-0.712756	-0.295298	0.600590	-0.717202	-0.228507	0.626316	-0.729507	-0.256121	0.680788	-0.724757	-0.218406	0.411897	-0.719225	-0.205703	0.388440	-0.606545	-0.340565	0.276621	-0.718433	-0.361677	0.244051	-0.705430	-0.306512	0.218133	-0.700317	-0.290830	0.256804	-0.712466	-0.405170	0.111370	-0.673249	-0.381830	0.129313	-0.596333	-0.458642	0.117800	-0.632699	-0.328001	0.036045	-0.689822	-0.286054	0.045162	-0.617799	-0.266357	0.036155	-0.627539	
258	1.2900	-0.334686	1.320662	-0.519244	-0.277725	1.314350	-0.684238	-0.243692	1.300827	-0.368663	-0.206272	1.262090	-0.540353	-0.196719	0.829313	-0.417623	-0.226174	0.830976	-0.662077	-0.237389	0.908375	-0.391330	-0.269725	0.903120	-0.680353	-0.364742	0.878395	-0.474071	-0.376905	0.877857	-0.561800	-0.376971	0.876026	-0.520009	-0.263011	0.668842	-0.348570	-0.242396	0.610221	-0.351844	-0.176173	0.640749	-0.358812	-0.203396	0.694824	-0.355925	-0.173478	0.411488	-0.376424	-0.174970	0.401383	-0.494609	-0.279333	0.309088	-0.355117	-0.305297	0.276166	-0.364542	-0.253096	0.244822	-0.369151	-0.231310	0.278650	-0.363940	-0.347316	0.108580	-0.398758	-0.404190	0.111737	-0.432385	-0.264539	0.036127	-0.383307	-0.229233	0.044906	-0.451174	-0.203123	0.035490	-0.449976	-0.314069	0.663594	-0.712990	-0.294907	0.607440	-0.717102	-0.227655	0.632234	-0.728814	-0.254565	0.687097	-0.724437	-0.221165	0.417504	-0.718145	-0.208831	0.394102	-0.605473	-0.341490	0.280131	-0.718292	-0.362113	0.247201	-0.705386	-0.306537	0.222093	-0.700176	-0.291447	0.261002	-0.712226	-0.403699	0.113814	-0.674148	-0.380788	0.131471	-0.597097	-0.456935	0.120303	-0.633793	-0.327281	0.036431	-0.689878	-0.285887	0.045041	-0.617772	-0.266403	0.036134	-0.627374	
259	1.2950	-0.335585	1.327767	-0.519535	-0.278878	1.321964	-0.683724	-0.244835	1.308475	-0.368563	-0.207116	1.269842	-0.540048	-0.194530	0.836290	-0.418018	-0.224055	0.838182	-0.661973	-0.235046	0.915492	-0.391324	-0.267570	0.910607	-0.680497	-0.362410	0.885415	-0.474119	-0.374636	0.884978	-0.561847	-0.374650	0.883094	-0.520050	-0.262014	0.675840	-0.348554	-0.242566	0.616890	-0.351961	-0.175892	0.646289	-0.359572	-0.202154	0.700808	-0.356361	-0.177492	0.416605	-0.376677	-0.180569	0.406454	-0.494737	-0.281810	0.312213	-0.354900	-0.307330	0.278948	-0.364149	-0.254517	0.248455	-0.369045	-0.233302	0.282622	-0.363870	-0.346556	0.110625	-0.398036	-0.403215	0.113773	-0.431253	-0.263933	0.036442	-0.383261	-0.229115	0.044838	-0.451165	-0.203294	0.035504	-0.450064	-0.313106	0.671166	-0.713116	-0.294743	0.614691	-0.716913	-0.227036	0.638480	-0.728143	-0.253165	0.693762	-0.724095	-0.224263	0.423462	-0.717023	-0.212577	0.400419	-0.604260	-0.342555	0.283910	-0.718065	-0.362618	0.250595	-0.705223	-0.306565	0.226319	-0.699912	-0.292177	0.265531	-0.711961	-0.402117	0.116466	-0.674952	-0.379557	0.133806	-0.597802	-0.455006	0.123017	-0.634737	-0.326529	0.036850	-0.689889	-0.285696	0.044924	-0.617749	-0.266451	0.036113	-0.627225	
